<svg viewBox="725.5999999999999 538.9195402298851 362.8000000000003 452.8735632183907" fill="none" xmlns="http://www.w3.org/2000/svg" xmlns:xlink="http://www.w3.org/1999/xlink" overflow="visible" width="362.8000000000003px" height="452.8735632183907px"><g id="Master/Icons/Lock 1"><g id="Lock 1" transform="scale(1 1)"><g id="Lock 1/Color"><g id="Group"><g id="Element 1"><path id="Vector" d="M926.79 859.47C927.041 860.128 927.129 860.838 927.045 861.537C926.961 862.237 926.709 862.905 926.309 863.486C925.91 864.066 925.375 864.541 924.752 864.869C924.129 865.197 923.435 865.369 922.73 865.37H894.73C894.018 865.366 893.318 865.187 892.692 864.849C892.065 864.512 891.531 864.025 891.136 863.433C890.741 862.84 890.497 862.16 890.427 861.452C890.356 860.743 890.46 860.029 890.73 859.37L898.79 839.52C895.642 837.762 893.02 835.196 891.195 832.086C889.37 828.976 888.409 825.436 888.41 821.83C888.41 816.457 890.545 811.303 894.344 807.504C898.144 803.704 903.297 801.57 908.67 801.57C914.043 801.572 919.194 803.708 922.993 807.507C926.792 811.306 928.928 816.457 928.93 821.83C928.931 825.32 928.03 828.751 926.315 831.791C924.6 834.831 922.128 837.376 919.14 839.18L926.79 859.47Z" fill="#3D55B7"/><path id="Vector_2" d="M1067.86 749.71V937.22C1067.86 941.112 1067.1 944.967 1065.61 948.563C1064.12 952.16 1061.94 955.428 1059.19 958.181C1056.43 960.935 1053.17 963.119 1049.57 964.61C1045.98 966.101 1042.12 966.868 1038.23 966.87H775.899C772.007 966.868 768.153 966.101 764.558 964.61C760.962 963.119 757.695 960.935 754.944 958.181C752.192 955.428 750.01 952.16 748.522 948.563C747.034 944.967 746.268 941.112 746.27 937.22V749.71C746.264 745.815 747.027 741.957 748.513 738.357C750 734.757 752.181 731.485 754.933 728.729C757.685 725.972 760.953 723.785 764.551 722.293C768.148 720.8 772.005 720.031 775.899 720.03H1038.23C1042.12 720.031 1045.98 720.8 1049.58 722.293C1053.18 723.785 1056.44 725.972 1059.2 728.729C1061.95 731.485 1064.13 734.757 1065.62 738.357C1067.1 741.957 1067.86 745.815 1067.86 749.71ZM992.35 824.78V762.59H824.889V824.78C824.895 837.082 827.688 849.223 833.057 860.292C838.426 871.36 846.232 881.069 855.889 888.69L905.35 927.77C906.297 928.513 907.466 928.916 908.669 928.916C909.873 928.916 911.042 928.513 911.99 927.77L961.449 888.69C971.089 881.059 978.876 871.346 984.227 860.278C989.579 849.21 992.356 837.074 992.35 824.78V824.78Z" fill="#6E9BFF"/><path id="Vector_3" d="M1038.22 672.76V720.03H998.979V676.75C998.993 664.677 996.622 652.719 992.002 641.565C987.383 630.41 980.605 620.278 972.059 611.75C963.532 603.202 953.4 596.423 942.245 591.803C931.09 587.183 919.132 584.813 907.059 584.83C894.988 584.829 883.036 587.205 871.885 591.824C860.733 596.442 850.6 603.212 842.065 611.747C833.531 620.282 826.761 630.414 822.142 641.566C817.524 652.718 815.147 664.67 815.148 676.74V720.03H775.898V672.72C775.901 638.641 789.441 605.959 813.539 581.863C837.637 557.767 870.32 544.23 904.398 544.23H909.749C926.624 544.231 943.334 547.557 958.924 554.018C974.514 560.478 988.679 569.946 1000.61 581.882C1012.54 593.818 1022 607.987 1028.45 623.58C1034.91 639.173 1038.23 655.884 1038.22 672.76V672.76Z" fill="#FCBECE"/><path id="Vector_4" d="M992.349 762.59V824.78C992.349 837.078 989.565 849.216 984.204 860.285C978.844 871.353 971.047 881.064 961.399 888.69L911.979 927.77C911.032 928.513 909.863 928.916 908.659 928.916C907.455 928.916 906.286 928.513 905.339 927.77L855.879 888.69C846.221 881.069 838.415 871.36 833.046 860.292C827.677 849.223 824.885 837.082 824.879 824.78V762.59H992.349ZM974.689 827.22V778.78H842.549V827.22C842.548 836.853 844.729 846.361 848.927 855.03C853.125 863.7 859.232 871.307 866.789 877.28L905.169 907.61C906.151 908.383 907.364 908.803 908.614 908.803C909.864 908.803 911.077 908.383 912.059 907.61L950.439 877.28C958.018 871.325 964.14 863.723 968.342 855.049C972.544 846.375 974.714 836.858 974.689 827.22V827.22Z" fill="#FFC964"/><path id="Vector_5" d="M974.691 778.78V827.22C974.716 836.858 972.546 846.375 968.344 855.049C964.142 863.723 958.019 871.325 950.441 877.28L912.061 907.61C911.079 908.383 909.865 908.803 908.616 908.803C907.366 908.803 906.153 908.383 905.171 907.61L866.791 877.28C859.233 871.307 853.127 863.7 848.928 855.03C844.73 846.36 842.55 836.853 842.551 827.22V778.78H974.691ZM922.691 865.37C923.395 865.369 924.089 865.197 924.712 864.869C925.336 864.541 925.87 864.066 926.27 863.486C926.669 862.905 926.922 862.237 927.005 861.537C927.089 860.838 927.002 860.128 926.751 859.47L919.051 839.19C922.039 837.386 924.51 834.841 926.226 831.801C927.941 828.761 928.842 825.33 928.841 821.84C928.838 816.467 926.703 811.316 922.904 807.517C919.105 803.718 913.953 801.582 908.581 801.58C903.208 801.58 898.054 803.714 894.255 807.514C890.455 811.313 888.321 816.466 888.321 821.84C888.319 825.446 889.281 828.986 891.105 832.096C892.93 835.206 895.552 837.772 898.701 839.53L890.641 859.38C890.371 860.039 890.266 860.753 890.337 861.462C890.408 862.17 890.651 862.85 891.046 863.443C891.441 864.035 891.975 864.522 892.602 864.859C893.229 865.197 893.929 865.376 894.641 865.38L922.691 865.37Z" fill="#E2A849"/><path id="Vector_6" d="M1038.23 968.14H775.9C767.705 968.129 759.848 964.867 754.055 959.071C748.262 953.274 745.005 945.415 745 937.22V749.71C745.005 741.515 748.262 733.658 754.056 727.862C759.849 722.067 767.705 718.808 775.9 718.8C776.068 718.798 776.234 718.83 776.389 718.894C776.544 718.957 776.685 719.05 776.804 719.168C776.923 719.286 777.018 719.427 777.082 719.581C777.147 719.736 777.18 719.902 777.18 720.07C777.18 720.409 777.045 720.735 776.805 720.975C776.565 721.215 776.239 721.35 775.9 721.35C768.383 721.36 761.176 724.352 755.862 729.669C750.547 734.985 747.558 742.192 747.55 749.71V937.22C747.555 944.739 750.543 951.949 755.858 957.267C761.173 962.586 768.381 965.579 775.9 965.59H1038.23C1045.75 965.579 1052.96 962.586 1058.27 957.267C1063.59 951.949 1066.57 944.739 1066.58 937.22V749.71C1066.57 742.192 1063.58 734.985 1058.27 729.669C1052.95 724.352 1045.75 721.36 1038.23 721.35C1038.06 721.346 1037.89 721.309 1037.74 721.24C1037.59 721.171 1037.45 721.073 1037.33 720.95C1037.21 720.827 1037.12 720.683 1037.06 720.525C1037 720.367 1036.97 720.199 1036.98 720.03C1036.98 719.693 1037.11 719.37 1037.35 719.132C1037.59 718.894 1037.91 718.76 1038.25 718.76C1046.44 718.768 1054.3 722.027 1060.09 727.822C1065.89 733.618 1069.14 741.475 1069.15 749.67V937.18C1069.15 941.243 1068.35 945.267 1066.8 949.021C1065.25 952.776 1062.97 956.189 1060.1 959.063C1057.23 961.938 1053.82 964.22 1050.07 965.777C1046.32 967.334 1042.29 968.137 1038.23 968.14V968.14Z" fill="#002127"/><path id="Vector_7" d="M1038.22 721.35H775.899C775.731 721.35 775.565 721.317 775.411 721.252C775.256 721.188 775.115 721.094 774.997 720.975C774.879 720.856 774.786 720.714 774.723 720.559C774.66 720.404 774.628 720.238 774.629 720.07V672.76C774.629 601.21 832.839 543 904.399 543H909.749C981.289 543 1039.5 601.21 1039.5 672.76V720.03C1039.5 720.201 1039.48 720.372 1039.41 720.532C1039.35 720.692 1039.26 720.838 1039.14 720.961C1039.02 721.084 1038.88 721.182 1038.72 721.249C1038.56 721.316 1038.39 721.35 1038.22 721.35V721.35ZM777.219 718.8H1036.98V672.8C1036.98 602.66 979.909 545.59 909.779 545.59H904.429C870.703 545.619 838.365 559.024 814.51 582.865C790.655 606.705 777.229 639.034 777.179 672.76L777.219 718.8Z" fill="#002127"/><path id="Vector_8" d="M998.979 721.35C998.64 721.35 998.314 721.215 998.074 720.975C997.834 720.735 997.699 720.41 997.699 720.07V676.79C997.73 664.884 995.401 653.089 990.846 642.088C986.29 631.087 979.599 621.099 971.159 612.7C962.759 604.259 952.769 597.567 941.767 593.012C930.764 588.456 918.967 586.127 907.059 586.16C883.031 586.187 859.994 595.744 843.003 612.734C826.013 629.725 816.455 652.762 816.429 676.79V720.03C816.429 720.198 816.396 720.365 816.332 720.52C816.267 720.675 816.173 720.816 816.054 720.935C815.935 721.054 815.794 721.148 815.639 721.213C815.484 721.277 815.317 721.31 815.149 721.31C814.981 721.31 814.815 721.277 814.661 721.213C814.506 721.148 814.365 721.054 814.247 720.935C814.129 720.816 814.036 720.675 813.973 720.519C813.91 720.364 813.878 720.198 813.879 720.03V676.75C813.908 652.046 823.735 628.363 841.203 610.894C858.671 593.426 882.355 583.599 907.059 583.57C919.302 583.536 931.431 585.93 942.743 590.614C954.054 595.298 964.325 602.18 972.959 610.86C981.639 619.493 988.52 629.762 993.204 641.072C997.888 652.382 1000.28 664.509 1000.25 676.75V720.03C1000.26 720.201 1000.23 720.372 1000.17 720.532C1000.11 720.691 1000.01 720.837 999.895 720.961C999.777 721.084 999.634 721.182 999.477 721.249C999.319 721.316 999.15 721.35 998.979 721.35V721.35Z" fill="#002127"/><path id="Vector_9" d="M922.731 866.65H894.731C893.808 866.651 892.898 866.425 892.084 865.99C891.269 865.556 890.574 864.927 890.061 864.16C889.545 863.396 889.225 862.516 889.131 861.598C889.037 860.68 889.171 859.754 889.521 858.9L897.581 839.05C897.709 838.738 897.956 838.49 898.267 838.359C898.577 838.228 898.928 838.225 899.241 838.35C899.396 838.413 899.537 838.505 899.657 838.623C899.776 838.74 899.871 838.88 899.936 839.035C900.001 839.189 900.035 839.354 900.036 839.522C900.037 839.689 900.004 839.855 899.941 840.01L891.881 859.86C891.682 860.326 891.605 860.834 891.655 861.337C891.706 861.841 891.883 862.324 892.171 862.74C892.452 863.16 892.833 863.504 893.28 863.741C893.727 863.979 894.225 864.102 894.731 864.1H922.731C923.231 864.105 923.724 863.985 924.166 863.751C924.608 863.517 924.984 863.177 925.261 862.76C925.548 862.354 925.729 861.882 925.788 861.388C925.848 860.894 925.783 860.393 925.601 859.93L917.901 839.64C917.841 839.484 917.813 839.317 917.818 839.15C917.823 838.983 917.861 838.819 917.93 838.667C917.999 838.514 918.097 838.377 918.219 838.263C918.341 838.148 918.484 838.059 918.641 838C918.955 837.88 919.304 837.889 919.612 838.026C919.919 838.163 920.16 838.416 920.281 838.73L927.981 859.03C928.301 859.882 928.412 860.798 928.304 861.701C928.197 862.604 927.873 863.468 927.361 864.22C926.843 864.969 926.151 865.582 925.345 866.005C924.539 866.429 923.641 866.65 922.731 866.65Z" fill="#002127"/><path id="Vector_10" d="M898.741 840.81C898.524 840.811 898.31 840.756 898.121 840.65C894.784 838.773 892.006 836.041 890.073 832.735C888.14 829.43 887.121 825.669 887.121 821.84C887.129 816.131 889.401 810.658 893.439 806.621C897.478 802.585 902.952 800.315 908.661 800.31C914.369 800.318 919.841 802.589 923.876 806.625C927.912 810.661 930.183 816.132 930.191 821.84C930.18 825.547 929.219 829.189 927.398 832.417C925.577 835.646 922.958 838.353 919.791 840.28C919.502 840.454 919.155 840.506 918.828 840.425C918.5 840.345 918.217 840.138 918.041 839.85C917.954 839.707 917.896 839.548 917.87 839.383C917.845 839.217 917.852 839.048 917.892 838.886C917.932 838.723 918.004 838.57 918.103 838.435C918.203 838.3 918.328 838.186 918.471 838.1C921.279 836.418 923.6 834.034 925.208 831.183C926.815 828.333 927.654 825.113 927.641 821.84C927.641 816.801 925.639 811.968 922.076 808.405C918.513 804.842 913.68 802.84 908.641 802.84C903.602 802.84 898.769 804.842 895.206 808.405C891.643 811.968 889.641 816.801 889.641 821.84C889.642 825.219 890.544 828.537 892.255 831.451C893.965 834.366 896.421 836.771 899.371 838.42C899.518 838.5 899.648 838.609 899.752 838.74C899.856 838.871 899.933 839.021 899.979 839.182C900.025 839.343 900.038 839.512 900.018 839.678C899.997 839.844 899.944 840.005 899.861 840.15C899.752 840.351 899.59 840.519 899.393 840.636C899.195 840.752 898.97 840.812 898.741 840.81V840.81Z" fill="#002127"/><path id="Vector_11" d="M908.61 930.2C907.118 930.198 905.671 929.694 904.5 928.77L855.05 889.69C845.222 881.97 837.283 872.112 831.836 860.865C826.388 849.618 823.575 837.277 823.61 824.78V762.59C823.61 762.422 823.643 762.256 823.707 762.102C823.772 761.947 823.866 761.806 823.985 761.688C824.104 761.57 824.245 761.477 824.401 761.414C824.556 761.35 824.722 761.319 824.89 761.32H992.35C992.688 761.32 993.012 761.453 993.251 761.691C993.491 761.929 993.627 762.252 993.63 762.59V824.78C993.665 837.277 990.852 849.618 985.404 860.865C979.956 872.112 972.017 881.97 962.19 889.69L912.73 928.77C911.556 929.695 910.105 930.199 908.61 930.2V930.2ZM826.16 763.87V824.78C826.127 836.891 828.855 848.851 834.134 859.752C839.414 870.652 847.107 880.206 856.63 887.69L906.09 926.77C906.81 927.341 907.701 927.652 908.62 927.652C909.538 927.652 910.43 927.341 911.15 926.77L960.6 887.7C970.125 880.218 977.819 870.664 983.098 859.763C988.378 848.862 991.104 836.902 991.07 824.79V763.88L826.16 763.87Z" fill="#002127"/><path id="Vector_12" d="M908.61 910.09C907.074 910.086 905.584 909.565 904.38 908.61L865.98 878.28C858.251 872.206 852.007 864.451 847.722 855.604C843.437 846.757 841.224 837.05 841.25 827.22V778.78C841.25 778.441 841.385 778.115 841.625 777.875C841.865 777.635 842.191 777.5 842.53 777.5H974.67C974.838 777.5 975.004 777.533 975.158 777.598C975.313 777.662 975.454 777.756 975.572 777.875C975.69 777.994 975.783 778.136 975.846 778.291C975.91 778.446 975.941 778.612 975.94 778.78V827.22C975.967 837.05 973.754 846.757 969.469 855.605C965.184 864.452 958.94 872.207 951.21 878.28L912.83 908.61C911.628 909.561 910.143 910.082 908.61 910.09ZM843.83 780.09V827.26C843.802 836.704 845.926 846.031 850.041 854.532C854.156 863.033 860.155 870.484 867.58 876.32V876.32L905.98 906.61C906.736 907.208 907.672 907.533 908.635 907.533C909.599 907.533 910.534 907.208 911.29 906.61L949.67 876.28C957.097 870.445 963.097 862.994 967.214 854.493C971.331 845.992 973.457 836.665 973.43 827.22V780.03L843.83 780.09Z" fill="#002127"/><path id="Vector_13" d="M909.09 836.63C907.982 834.458 906.641 832.412 905.09 830.53C903.59 828.44 902.09 826.38 900.66 824.22C899.356 822.345 898.498 820.197 898.15 817.94C897.866 815.725 898.124 813.474 898.9 811.38C900.49 807.06 905.68 803.62 910.15 802.69C911.51 802.41 909.58 800.62 908.22 800.89C906.271 801.308 904.416 802.084 902.75 803.18C902.67 803.021 902.556 802.88 902.418 802.767C902.279 802.654 902.119 802.571 901.946 802.524C901.774 802.477 901.594 802.467 901.417 802.494C901.24 802.52 901.071 802.584 900.92 802.68C896.53 805.33 892.1 808.41 890.16 813.36C889.21 815.931 888.842 818.68 889.08 821.41C888.881 821.521 888.715 821.683 888.6 821.88L888.53 821.99C888.359 822.299 888.312 822.662 888.397 823.005C888.482 823.349 888.694 823.647 888.99 823.84C889.271 824.754 889.488 825.686 889.64 826.63L890.64 830.07C890.69 830.27 890.787 830.455 890.922 830.61C891.058 830.765 891.229 830.885 891.42 830.96C891.89 832.023 892.446 833.046 893.08 834.02C894.389 836.339 896.208 838.329 898.4 839.84V839.84C898.302 839.994 898.24 840.168 898.22 840.35C898.058 841.384 897.827 842.406 897.53 843.41C897.094 844.348 896.759 845.331 896.53 846.34C894.92 850.28 892.66 853.98 891.15 857.97C890.34 860.11 889.81 862.46 891.82 864.08C893.83 865.7 896.82 865.9 899.27 865.38C899.415 865.344 899.553 865.286 899.68 865.21C899.753 865.403 899.871 865.577 900.024 865.716C900.177 865.855 900.361 865.956 900.56 866.01C900.924 866.105 901.31 866.054 901.635 865.866C901.961 865.679 902.2 865.372 902.3 865.01C903.012 860.088 904.356 855.278 906.3 850.7C908.15 846.25 911.21 841.59 909.09 836.63Z" fill="#002127"/><g id="Group_2" style="mix-blend-mode:overlay" opacity="0.5"><g id="Vector_14" style="mix-blend-mode:overlay" opacity="0.8"><path d="M992.351 762.59V763.84C984.481 766.4 975.621 770.33 963.781 778.4C928.341 802.55 937.111 815.4 901.671 839.58C871.891 859.86 858.481 851.78 835.621 865.18C828.587 852.877 824.888 838.951 824.891 824.78V803.13C835.961 800.31 847.011 797.5 864.751 785.41C877.561 776.69 884.591 769.41 890.031 762.59H992.351Z" fill="white"/></g><g id="Vector_15" style="mix-blend-mode:overlay" opacity="0.8"><path d="M992.35 777.93V818.03L991.27 818.76C955.83 842.91 964.21 855.21 928.76 879.36C902.85 897.03 889.98 893.82 871.98 901.41L855.88 888.69C851.671 885.361 847.799 881.626 844.32 877.54C868.4 865.08 879 870.78 909.02 850.32C944.46 826.17 936.09 813.87 971.53 789.72C978.081 785.14 985.053 781.192 992.35 777.93V777.93Z" fill="white"/></g></g><path id="Vector_16" d="M935.141 720.31C931.841 720.2 928.541 720.13 925.241 720.07C923.241 720.07 918.011 720.97 916.421 719.45C916.191 719.23 911.811 720.19 911.551 719.99C911.091 719.63 907.311 720.13 906.731 720.07C896.811 719.07 896.421 719.77 886.521 720.58C879.371 721.17 871.181 719.7 864.091 720.7C860.97 720.87 857.842 720.87 854.721 720.7C852.151 720.63 851.661 721.17 849.091 721.12C844.051 721.013 839.014 720.94 833.981 720.9C820.031 720.82 805.981 720.36 792.051 720.9C791.86 720.439 791.522 720.053 791.091 719.801C790.659 719.55 790.157 719.448 789.661 719.51C789.411 719.51 789.161 719.59 788.911 719.61L788.161 719.73C786.931 719.89 785.701 720.07 784.481 720.28L777.841 721.28C777.763 720.918 777.611 720.575 777.394 720.275C777.177 719.974 776.899 719.722 776.58 719.534C776.26 719.346 775.905 719.226 775.537 719.183C775.169 719.139 774.796 719.172 774.441 719.28C772.021 720.15 769.271 719.91 767.231 721.37C765.471 721.63 764.231 723.37 762.491 723.6C762.01 723.711 761.572 723.959 761.23 724.314C760.887 724.669 760.655 725.116 760.561 725.6C758.506 726.813 756.628 728.304 754.981 730.03C754.86 730.161 754.749 730.301 754.651 730.45C754.367 730.638 754.125 730.884 753.943 731.172C753.76 731.46 753.64 731.783 753.591 732.12C752.658 732.7 751.859 733.474 751.251 734.39C750.365 735.826 749.761 737.418 749.471 739.08C749.091 739.217 748.745 739.435 748.457 739.718C748.169 740.001 747.945 740.343 747.801 740.72C745.561 746.37 747.221 752.34 746.561 758.2C746.509 758.628 746.567 759.062 746.731 759.46C746.238 764.46 745.904 769.46 745.731 774.46C745.431 782.2 745.478 789.933 745.871 797.66C745.869 798.146 745.997 798.624 746.244 799.043C746.49 799.461 746.845 799.806 747.271 800.04C747.271 800.9 747.331 801.76 747.381 802.63C747.381 803.32 747.491 804 747.551 804.69C747.551 804.94 747.551 805.2 747.551 805.45C747.551 807.537 747.524 809.623 747.471 811.71C746.875 811.848 746.342 812.18 745.957 812.655C745.571 813.129 745.354 813.719 745.341 814.33C744.716 822.931 745.336 831.577 747.181 840C747.216 840.144 747.263 840.284 747.321 840.42L747.231 847.03C746.666 854.453 746.536 861.902 746.841 869.34C746.351 892.34 746.951 915.25 745.961 938.19C745.881 940.19 746.201 941.01 747.721 940.78C747.969 946.429 749.833 951.889 753.091 956.51C753.423 957.003 753.883 957.397 754.421 957.65C755.17 958.79 756.331 959.597 757.661 959.9C758.094 960.514 758.733 960.954 759.461 961.14C759.416 961.613 759.54 962.087 759.812 962.476C760.084 962.866 760.486 963.146 760.945 963.266C761.405 963.386 761.892 963.339 762.32 963.133C762.748 962.927 763.089 962.575 763.281 962.14C772.161 940.64 773.281 917.34 771.511 894.39C770.571 882.21 768.961 870.09 767.691 857.94C766.421 845.79 765.571 833.34 765.191 821C764.811 808.66 764.881 796.29 765.501 784C765.981 774.37 766.781 764.24 771.321 755.55C778.991 740.87 795.321 737.67 810.051 735.14C830.481 731.64 850.821 728.28 871.461 726.21C886.041 724.75 900.701 723.64 915.341 723.21C925.741 722.9 940.341 721.01 950.731 721.35C952.871 721.36 937.301 720.38 935.141 720.31Z" fill="#002127"/><path id="Vector_17" d="M1068.09 910.94C1068.37 910.787 1068.6 910.553 1068.74 910.269C1068.88 909.986 1068.94 909.666 1068.9 909.35C1068.32 901.17 1068.04 892.983 1068.05 884.79C1068.07 884.354 1067.92 883.928 1067.64 883.594C1067.36 883.26 1066.96 883.041 1066.53 882.98C1066.85 870.98 1066.69 858.89 1066.63 846.85C1066.63 844.58 1066.88 827.85 1066.88 827.85C1066.88 827.85 1063.44 874.73 1062.68 888.66C1062.29 895.66 1061.68 902.72 1060.76 909.66C1060.11 915.467 1059 921.212 1057.43 926.84C1055.86 932.04 1053.5 937.11 1049.67 941.04C1045.77 944.797 1040.98 947.499 1035.75 948.89C1029.99 950.436 1024.13 951.585 1018.21 952.33C1011.27 953.4 1004.33 954.46 997.401 955.57C989.481 956.83 981.561 958.087 973.641 959.34C965.751 960.58 948.151 963.9 940.361 965.68C938.251 966.17 948.231 967.32 950.451 967.13C954.041 966.83 957.621 966.34 961.191 965.79C961.344 966.269 961.672 966.673 962.109 966.922C962.547 967.17 963.062 967.244 963.552 967.13L965.201 966.87C965.442 967.159 965.752 967.383 966.101 967.522C966.45 967.662 966.828 967.713 967.201 967.67L975.582 967.04C975.976 967.017 976.361 966.912 976.711 966.73C985.141 967.198 993.589 967.222 1002.02 966.8C1005.14 966.76 1008.26 966.539 1011.35 966.14H1011.7L1012.45 966.05C1012.69 966.016 1012.93 965.942 1013.14 965.83C1013.3 965.845 1013.47 965.845 1013.63 965.83C1026.09 965.77 1040.49 967.74 1052.22 962.72C1052.52 962.606 1052.79 962.43 1053.01 962.205C1053.24 961.979 1053.41 961.708 1053.52 961.41C1053.69 961.339 1053.85 961.252 1054 961.15C1057.24 958.91 1060.25 956.362 1063 953.54C1063.32 953.235 1063.56 952.848 1063.68 952.42C1063.8 951.992 1063.81 951.54 1063.69 951.11C1064.54 949.86 1065.36 948.58 1066.11 947.27C1066.36 946.875 1066.44 946.401 1066.34 945.948C1066.24 945.495 1065.97 945.097 1065.58 944.84C1065.99 943.79 1066.38 942.73 1066.69 941.65C1069.14 933.2 1068.21 923.77 1068.27 915.08C1068.28 914.696 1068.2 914.314 1068.05 913.96C1068.06 913.827 1068.06 913.693 1068.05 913.56L1068.09 910.94Z" fill="#002127"/></g></g></g></g></g></svg>