<svg viewBox="0 256.5 1079.9999999999998 566.9999999999999" fill="none" xmlns="http://www.w3.org/2000/svg" xmlns:xlink="http://www.w3.org/1999/xlink" overflow="visible" width="1079.9999999999998px" height="566.9999999999999px"><g id="Master/Eco Friendly/Recycle Truck"><g id="Group 22"><path id="Vector" d="M551 745.5C551 763.402 543.888 780.571 531.23 793.23C518.571 805.888 501.402 813 483.5 813H456.5C438.598 813 421.429 805.888 408.77 793.23C396.112 780.571 389 763.402 389 745.5H551Z" fill="black"/><path id="Vector_2" d="M740 745.5C740 763.402 732.888 780.571 720.23 793.23C707.571 805.888 690.402 813 672.5 813H645.5C627.598 813 610.429 805.888 597.77 793.23C585.112 780.571 578 763.402 578 745.5H740Z" fill="black"/><path id="Vector_3" d="M267.5 745.5C267.5 763.402 260.388 780.571 247.73 793.23C235.071 805.888 217.902 813 200 813H173C155.098 813 137.929 805.888 125.27 793.23C112.612 780.571 105.5 763.402 105.5 745.5H267.5Z" fill="black"/><path id="Vector_4" d="M960.84 394.5C943.204 358.085 915.668 327.375 881.385 305.886C847.103 284.398 807.46 273.001 767 273H284C276.044 273 268.413 276.161 262.787 281.787C257.161 287.413 254 295.044 254 303V651H848L951.56 745.5H1064V607.5L960.84 394.5Z" fill="#57AE09"/><path id="Vector_5" d="M929 745.5H254V651H834.4C887.08 651 929.61 692.83 929 745.5Z" fill="#017802"/><path id="Vector_6" d="M389 379V624H362C336.87 624.001 312.358 631.79 291.837 646.295C271.316 660.801 255.795 681.31 247.41 705H38V527.8C37.9912 520.04 39.7887 512.385 43.25 505.44L112.06 367.82C114.136 363.667 117.328 360.175 121.277 357.734C125.226 355.293 129.777 354 134.42 354H364C370.63 354 376.989 356.634 381.678 361.322C386.366 366.011 389 372.37 389 379Z" fill="#C7C7C9"/><path id="Vector_7" d="M551 718.5C551 740.87 538.91 759 524 759H443C428.09 759 416 740.87 416 718.5C416 696.13 428.09 678 443 678H524C538.91 678 551 696.13 551 718.5Z" fill="#C7C7C9"/><path id="Vector_8" d="M402.5 745.5C402.503 758.637 398.673 771.488 391.479 782.48C384.285 793.472 374.04 802.125 362 807.38V813H335C317.098 813 299.929 805.888 287.27 793.23C274.612 780.571 267.5 763.402 267.5 745.5C267.5 727.598 274.612 710.429 287.27 697.77C299.929 685.112 317.098 678 335 678H362V683.62C374.04 688.875 384.285 697.528 391.479 708.52C398.673 719.512 402.503 732.363 402.5 745.5V745.5Z" fill="black"/><path id="Vector_9" d="M362 678C348.65 678 335.599 681.959 324.499 689.376C313.399 696.793 304.747 707.335 299.638 719.669C294.529 732.003 293.193 745.575 295.797 758.669C298.402 771.762 304.83 783.79 314.27 793.23C323.71 802.67 335.738 809.099 348.831 811.703C361.925 814.308 375.497 812.971 387.831 807.862C400.165 802.753 410.707 794.101 418.124 783.001C425.541 771.901 429.5 758.85 429.5 745.5C429.5 727.598 422.388 710.429 409.73 697.77C397.071 685.112 379.902 678 362 678V678Z" fill="#808080"/><path id="Vector_10" d="M362 772.5C376.912 772.5 389 760.412 389 745.5C389 730.588 376.912 718.5 362 718.5C347.088 718.5 335 730.588 335 745.5C335 760.412 347.088 772.5 362 772.5Z" fill="#C7C7C9"/><path id="Vector_11" d="M362 777.5C353.513 777.5 345.374 774.129 339.373 768.127C333.371 762.126 330 753.987 330 745.5C330 737.013 333.371 728.874 339.373 722.873C345.374 716.871 353.513 713.5 362 713.5C363.326 713.5 364.598 714.027 365.536 714.964C366.473 715.902 367 717.174 367 718.5C367 719.826 366.473 721.098 365.536 722.036C364.598 722.973 363.326 723.5 362 723.5C356.165 723.5 350.569 725.818 346.444 729.944C342.318 734.069 340 739.665 340 745.5C340 751.335 342.318 756.931 346.444 761.056C350.569 765.182 356.165 767.5 362 767.5C363.326 767.5 364.598 768.027 365.536 768.964C366.473 769.902 367 771.174 367 772.5C367 773.826 366.473 775.098 365.536 776.036C364.598 776.973 363.326 777.5 362 777.5Z" fill="black"/><path id="Vector_12" d="M686 745.5C686.003 758.637 682.173 771.488 674.979 782.48C667.785 793.472 657.54 802.125 645.5 807.38V813H618.5C600.598 813 583.429 805.888 570.77 793.23C558.112 780.571 551 763.402 551 745.5C551 727.598 558.112 710.429 570.77 697.77C583.429 685.112 600.598 678 618.5 678H645.5V683.62C657.54 688.875 667.785 697.528 674.979 708.52C682.173 719.512 686.003 732.363 686 745.5V745.5Z" fill="black"/><path id="Vector_13" d="M645.5 678C632.15 678 619.099 681.959 607.999 689.376C596.899 696.793 588.247 707.335 583.138 719.669C578.029 732.003 576.693 745.575 579.297 758.669C581.902 771.762 588.33 783.79 597.77 793.23C607.21 802.67 619.238 809.099 632.331 811.703C645.425 814.308 658.997 812.971 671.331 807.862C683.665 802.753 694.207 794.101 701.624 783.001C709.041 771.901 713 758.85 713 745.5C713 727.598 705.888 710.429 693.23 697.77C680.571 685.112 663.402 678 645.5 678Z" fill="#808080"/><path id="Vector_14" d="M645.5 772.5C660.412 772.5 672.5 760.412 672.5 745.5C672.5 730.588 660.412 718.5 645.5 718.5C630.588 718.5 618.5 730.588 618.5 745.5C618.5 760.412 630.588 772.5 645.5 772.5Z" fill="#C7C7C9"/><path id="Vector_15" d="M645.5 777.5C637.013 777.5 628.874 774.129 622.873 768.127C616.871 762.126 613.5 753.987 613.5 745.5C613.5 737.013 616.871 728.874 622.873 722.873C628.874 716.871 637.013 713.5 645.5 713.5C646.826 713.5 648.098 714.027 649.036 714.964C649.973 715.902 650.5 717.174 650.5 718.5C650.5 719.826 649.973 721.098 649.036 722.036C648.098 722.973 646.826 723.5 645.5 723.5C639.665 723.5 634.069 725.818 629.944 729.944C625.818 734.069 623.5 739.665 623.5 745.5C623.5 751.335 625.818 756.931 629.944 761.056C634.069 765.182 639.665 767.5 645.5 767.5C646.826 767.5 648.098 768.027 649.036 768.964C649.973 769.902 650.5 771.174 650.5 772.5C650.5 773.826 649.973 775.098 649.036 776.036C648.098 776.973 646.826 777.5 645.5 777.5Z" fill="black"/><path id="Vector_16" d="M875 745.5C875.003 758.637 871.173 771.488 863.979 782.48C856.785 793.472 846.54 802.125 834.5 807.38V813H807.5C789.598 813 772.429 805.888 759.77 793.23C747.112 780.571 740 763.402 740 745.5C740 727.598 747.112 710.429 759.77 697.77C772.429 685.112 789.598 678 807.5 678H834.5V683.62C846.54 688.875 856.785 697.528 863.979 708.52C871.173 719.512 875.003 732.363 875 745.5V745.5Z" fill="black"/><path id="Vector_17" d="M834.5 678C821.15 678 808.099 681.959 796.999 689.376C785.899 696.793 777.247 707.335 772.138 719.669C767.029 732.003 765.693 745.575 768.297 758.669C770.902 771.762 777.33 783.79 786.77 793.23C796.21 802.67 808.238 809.099 821.331 811.703C834.425 814.308 847.997 812.971 860.331 807.862C872.665 802.753 883.207 794.101 890.624 783.001C898.041 771.901 902 758.85 902 745.5C902 727.598 894.888 710.429 882.23 697.77C869.571 685.112 852.402 678 834.5 678Z" fill="#808080"/><path id="Vector_18" d="M834.5 772.5C849.412 772.5 861.5 760.412 861.5 745.5C861.5 730.588 849.412 718.5 834.5 718.5C819.588 718.5 807.5 730.588 807.5 745.5C807.5 760.412 819.588 772.5 834.5 772.5Z" fill="#C7C7C9"/><path id="Vector_19" d="M834.5 777.5C826.013 777.5 817.874 774.129 811.873 768.127C805.871 762.126 802.5 753.987 802.5 745.5C802.5 737.013 805.871 728.874 811.873 722.873C817.874 716.871 826.013 713.5 834.5 713.5C835.826 713.5 837.098 714.027 838.036 714.964C838.973 715.902 839.5 717.174 839.5 718.5C839.5 719.826 838.973 721.098 838.036 722.036C837.098 722.973 835.826 723.5 834.5 723.5C828.665 723.5 823.069 725.818 818.944 729.944C814.818 734.069 812.5 739.665 812.5 745.5C812.5 751.335 814.818 756.931 818.944 761.056C823.069 765.182 828.665 767.5 834.5 767.5C835.826 767.5 837.098 768.027 838.036 768.964C838.973 769.902 839.5 771.174 839.5 772.5C839.5 773.826 838.973 775.098 838.036 776.036C837.098 776.973 835.826 777.5 834.5 777.5Z" fill="black"/><path id="Vector_20" d="M126.97 392.06L72.25 501.53C71.4883 503.054 71.1288 504.748 71.2054 506.45C71.2821 508.152 71.7924 509.806 72.688 511.256C73.5836 512.706 74.8347 513.902 76.3227 514.733C77.8106 515.563 79.4861 515.999 81.19 516H160.65C164.365 516 168.006 514.965 171.166 513.012C174.326 511.058 176.879 508.263 178.54 504.94L233.25 395.47C234.012 393.946 234.371 392.252 234.295 390.55C234.218 388.848 233.708 387.194 232.812 385.744C231.916 384.294 230.665 383.098 229.177 382.267C227.689 381.437 226.014 381.001 224.31 381H144.86C141.145 381 137.504 382.035 134.344 383.988C131.184 385.942 128.631 388.737 126.97 392.06V392.06Z" fill="#90CAF9"/><path id="Vector_21" d="M362 396V508C362 510.469 361.39 512.9 360.225 515.078C359.059 517.255 357.375 519.11 355.32 520.48L288.56 564.99C283.628 568.262 277.838 570.001 271.92 569.99H242C238.022 569.99 234.206 568.41 231.393 565.597C228.58 562.784 227 558.968 227 554.99V523.08C226.997 518.424 228.082 513.832 230.17 509.67L290.35 389.29C291.596 386.798 293.512 384.703 295.882 383.239C298.253 381.774 300.984 380.999 303.77 381H347C350.978 381 354.794 382.58 357.607 385.393C360.42 388.206 362 392.022 362 396V396Z" fill="#90CAF9"/><path id="Vector_22" d="M281 607V621C268.362 629.248 257.047 639.362 247.44 651H237C234.348 651 231.804 649.946 229.929 648.071C228.054 646.196 227 643.652 227 641V607C227 604.348 228.054 601.804 229.929 599.929C231.804 598.054 234.348 597 237 597H271C273.652 597 276.196 598.054 278.071 599.929C279.946 601.804 281 604.348 281 607Z" fill="#90CAF9"/><path id="Vector_23" d="M1064 719.75V745.55H929C929.61 692.88 887.08 651.05 834.4 651.05H362C336.937 651.05 312.901 661.006 295.178 678.728C277.456 696.45 267.5 720.487 267.5 745.55H26C22.0218 745.55 18.2064 743.969 15.3934 741.156C12.5804 738.343 11 734.528 11 730.55V693.05C11 689.072 12.5804 685.256 15.3934 682.443C18.2064 679.63 22.0218 678.05 26 678.05H200L227 705.05H247.41C255.795 681.36 271.316 660.851 291.837 646.345C312.358 631.84 336.87 624.051 362 624.05H834.5C862.243 624.054 889.15 633.549 910.752 650.958C932.354 668.367 947.35 692.641 953.25 719.75H1064Z" fill="#808080"/><path id="Vector_24" d="M65 570L85.25 651H141L161.25 570H65Z" fill="#808080"/><path id="Vector_25" d="M75.5201 499.97C74.3398 499.975 73.1957 499.562 72.2903 498.805C71.3848 498.048 70.7765 496.994 70.573 495.832C70.3694 494.669 70.5837 493.472 71.178 492.452C71.7723 491.432 72.7082 490.656 73.8201 490.26L205.68 442.54C206.302 442.294 206.967 442.177 207.635 442.193C208.304 442.209 208.962 442.359 209.571 442.635C210.18 442.91 210.728 443.304 211.182 443.795C211.636 444.285 211.988 444.862 212.215 445.491C212.442 446.119 212.541 446.787 212.506 447.455C212.471 448.122 212.302 448.776 212.01 449.377C211.718 449.979 211.308 450.515 210.805 450.955C210.301 451.395 209.715 451.73 209.08 451.94L77.2501 499.67C76.6952 499.869 76.1098 499.971 75.5201 499.97V499.97Z" fill="white"/><path id="Vector_26" d="M97.4797 456.05C96.3035 456.051 95.1645 455.637 94.2632 454.881C93.3618 454.126 92.7557 453.076 92.5515 451.918C92.3473 450.76 92.558 449.566 93.1466 448.548C93.7352 447.53 94.664 446.751 95.7697 446.35L227.64 398.62C228.888 398.169 230.263 398.232 231.465 398.796C232.666 399.36 233.594 400.377 234.045 401.625C234.496 402.873 234.432 404.249 233.869 405.45C233.305 406.651 232.288 407.579 231.04 408.03L99.1797 455.75C98.6343 455.946 98.0594 456.048 97.4797 456.05V456.05Z" fill="white"/><path id="Vector_27" d="M227 548C225.815 547.997 224.669 547.574 223.767 546.804C222.865 546.035 222.266 544.971 222.076 543.801C221.886 542.631 222.118 541.431 222.731 540.416C223.344 539.401 224.297 538.637 225.42 538.26C226.19 538 302.23 511.98 289.86 463.26C284.6 442.56 291.66 422.56 310.26 405.41C325.03 391.8 343.66 382.99 353.45 378.95C354.061 378.674 354.722 378.524 355.392 378.509C356.062 378.494 356.728 378.613 357.351 378.861C357.974 379.108 358.541 379.478 359.018 379.949C359.496 380.42 359.873 380.982 360.129 381.602C360.384 382.222 360.512 382.886 360.506 383.557C360.499 384.227 360.358 384.889 360.091 385.504C359.823 386.118 359.435 386.673 358.948 387.134C358.462 387.596 357.888 387.955 357.26 388.19C348.09 391.98 330.67 400.19 317.04 412.76C301.04 427.47 295.2 443.63 299.55 460.76C305.69 484.95 295.1 507.76 268.92 526.76C256.504 535.582 242.929 542.649 228.58 547.76C228.071 547.927 227.537 548.008 227 548V548Z" fill="white"/><path id="Vector_28" d="M254 575C253.012 575 252.046 574.707 251.224 574.158C250.402 573.609 249.762 572.829 249.383 571.917C249.004 571.004 248.904 570 249.096 569.03C249.288 568.061 249.762 567.17 250.46 566.47L358.46 458.47C359.399 457.531 360.672 457.004 362 457.004C363.328 457.004 364.601 457.531 365.54 458.47C366.479 459.409 367.006 460.682 367.006 462.01C367.006 463.338 366.479 464.611 365.54 465.55L257.54 573.55C256.599 574.484 255.325 575.005 254 575V575Z" fill="white"/><path id="Vector_29" d="M176.45 597L162.95 651H200V597H176.45Z" fill="#FEC005"/><path id="Vector_30" d="M51.5 597L65 651H38V597H51.5Z" fill="#FEC005"/><path id="Vector_31" d="M375.5 295H281C279.674 295 278.402 295.527 277.464 296.464C276.527 297.402 276 298.674 276 300V354C276 355.326 276.527 356.598 277.464 357.536C278.402 358.473 279.674 359 281 359C282.326 359 283.598 358.473 284.536 357.536C285.473 356.598 286 355.326 286 354V305H370.5V354C370.5 355.326 371.027 356.598 371.964 357.536C372.902 358.473 374.174 359 375.5 359C376.826 359 378.098 358.473 379.036 357.536C379.973 356.598 380.5 355.326 380.5 354V300C380.5 298.674 379.973 297.402 379.036 296.464C378.098 295.527 376.826 295 375.5 295Z" fill="#017802"/><path id="Vector_32" d="M386 268C384.674 268 383.402 268.527 382.464 269.464C381.527 270.402 381 271.674 381 273C381 274.326 381.527 275.598 382.464 276.536C383.402 277.473 384.674 278 386 278C392.63 278 398.989 280.634 403.678 285.322C408.366 290.011 411 296.37 411 303V624C411 625.326 411.527 626.598 412.464 627.536C413.402 628.473 414.674 629 416 629C417.326 629 418.598 628.473 419.536 627.536C420.473 626.598 421 625.326 421 624V303C421 293.717 417.313 284.815 410.749 278.251C404.185 271.687 395.283 268 386 268V268Z" fill="#017802"/><path id="Vector_33" d="M771.5 270.82C770.922 269.627 769.893 268.712 768.641 268.277C767.388 267.842 766.014 267.922 764.82 268.5C763.627 269.078 762.712 270.107 762.277 271.36C761.842 272.612 761.922 273.987 762.5 275.18L978.83 721.88C979.117 722.471 979.516 723 980.007 723.436C980.498 723.873 981.069 724.208 981.69 724.424C982.31 724.639 982.967 724.73 983.622 724.692C984.278 724.654 984.919 724.487 985.51 724.2C986.101 723.914 986.63 723.514 987.066 723.023C987.503 722.533 987.838 721.961 988.054 721.341C988.269 720.72 988.36 720.064 988.322 719.408C988.284 718.753 988.117 718.111 987.83 717.52L771.5 270.82Z" fill="#017802"/><path id="Vector_34" d="M1041.5 611.53L941.04 404.09C928.709 378.636 910.946 356.196 889.004 338.35C867.061 320.504 841.473 307.686 814.04 300.8C813.121 300.571 812.156 300.609 811.257 300.908C810.359 301.207 809.563 301.755 808.964 302.489C808.365 303.222 807.986 304.111 807.872 305.051C807.758 305.991 807.914 306.944 808.321 307.8L995.761 694.88C996.162 695.733 996.797 696.455 997.591 696.963C998.386 697.47 999.308 697.743 1000.25 697.75H1036.99C1038.32 697.75 1039.59 697.223 1040.53 696.285C1041.46 695.347 1041.99 694.076 1041.99 692.75V613.75C1042 612.982 1041.83 612.222 1041.5 611.53V611.53ZM1032 687.7H1003.39L822.16 313.48C845.977 321.003 868.007 333.309 886.901 349.645C905.794 365.98 921.155 386 932.04 408.48L1032.04 614.88L1032 687.7Z" fill="#017802"/><path id="Vector_35" d="M754.58 297.82C754.475 297.613 754.358 297.412 754.23 297.22V297.22C754.072 296.982 753.891 296.761 753.69 296.56C753.69 296.5 753.58 296.45 753.52 296.39C753.359 296.239 753.189 296.099 753.01 295.97L752.83 295.84C752.594 295.687 752.347 295.553 752.09 295.44L751.9 295.37C751.685 295.286 751.465 295.22 751.24 295.17L750.99 295.11C750.696 295.054 750.399 295.024 750.1 295.02H443C441.674 295.02 440.402 295.546 439.464 296.484C438.527 297.422 438 298.693 438 300.02V597.02C438 598.346 438.527 599.617 439.464 600.555C440.402 601.493 441.674 602.02 443 602.02H893.91C894.757 602.02 895.59 601.804 896.331 601.394C897.072 600.984 897.697 600.393 898.147 599.675C898.597 598.957 898.857 598.137 898.903 597.291C898.949 596.445 898.779 595.602 898.41 594.84L754.58 297.82ZM673.31 511C671.984 511 670.712 511.526 669.774 512.464C668.837 513.402 668.31 514.673 668.31 516V592H601.54V516C601.54 514.673 601.013 513.402 600.076 512.464C599.138 511.526 597.866 511 596.54 511C595.214 511 593.942 511.526 593.004 512.464C592.067 513.402 591.54 514.673 591.54 516V592H524.77V305H591.54V354C591.54 355.326 592.067 356.597 593.004 357.535C593.942 358.473 595.214 359 596.54 359C597.866 359 599.138 358.473 600.076 357.535C601.013 356.597 601.54 355.326 601.54 354V305H668.31V354C668.31 355.326 668.837 356.597 669.774 357.535C670.712 358.473 671.984 359 673.31 359C674.636 359 675.908 358.473 676.846 357.535C677.783 356.597 678.31 355.326 678.31 354V305H745.08V592H678.31V516C678.31 514.673 677.783 513.402 676.846 512.464C675.908 511.526 674.636 511 673.31 511ZM755.08 321.8L828 472.38V592H755.08V321.8ZM448 305H514.77V592H448V305ZM838 592V493L885.93 592H838Z" fill="#017802"/><path id="Vector_36" d="M623.58 505.56L641.58 485.16H569.63L582.57 462.75L593.86 469.27C594.258 469.499 594.716 469.602 595.174 469.564C595.631 469.527 596.066 469.351 596.421 469.06C596.776 468.769 597.034 468.377 597.161 467.935C597.288 467.494 597.277 467.025 597.13 466.59L580.91 418.37C580.598 417.429 579.951 416.635 579.092 416.139C578.233 415.643 577.222 415.48 576.25 415.68L526.38 425.75C525.931 425.842 525.521 426.068 525.203 426.398C524.886 426.729 524.676 427.148 524.602 427.6C524.529 428.053 524.594 428.517 524.79 428.931C524.986 429.345 525.304 429.69 525.7 429.92L536.99 436.44L527.33 453.18C525.105 457.158 523.953 461.648 523.988 466.206C524.023 470.765 525.244 475.236 527.53 479.18L553.84 524.75C558.5 532.83 566.73 537.95 575.48 537.89H641.57L623.57 517.5C622.112 515.852 621.308 513.728 621.31 511.528C621.312 509.328 622.12 507.205 623.58 505.56V505.56Z" fill="white"/><path id="Vector_37" d="M701.15 366.75L689.92 373.24L680.31 356.59C677.986 352.704 674.694 349.488 670.756 347.255C666.818 345.023 662.368 343.849 657.84 343.85H605.5C596.22 343.85 587.72 348.39 583.42 355.96L550.15 413.46L576.58 408.12C578.727 407.689 580.957 408.055 582.853 409.15C584.749 410.246 586.181 411.995 586.88 414.07L595.48 439.63L631.64 377L644.64 399.41L633.35 405.85C632.956 406.079 632.641 406.424 632.447 406.837C632.253 407.25 632.189 407.712 632.264 408.163C632.339 408.613 632.549 409.03 632.866 409.358C633.183 409.686 633.593 409.91 634.04 410L683.64 420C684.607 420.203 685.614 420.042 686.469 419.548C687.324 419.053 687.966 418.259 688.27 417.32L704.4 369.32C704.518 368.894 704.507 368.442 704.369 368.022C704.231 367.603 703.973 367.232 703.626 366.958C703.28 366.684 702.86 366.518 702.42 366.481C701.98 366.444 701.538 366.537 701.15 366.75V366.75Z" fill="white"/><path id="Vector_38" d="M736.85 453.75L703.32 395.75L694.69 421.41C694 423.502 692.566 425.269 690.66 426.375C688.755 427.481 686.509 427.849 684.35 427.41L657.81 422.04L694.25 485.16H668.25V472.07C668.251 471.612 668.113 471.165 667.853 470.788C667.593 470.411 667.224 470.123 666.796 469.961C666.368 469.799 665.901 469.771 665.457 469.882C665.012 469.993 664.612 470.236 664.31 470.58L630.57 508.83C629.922 509.57 629.564 510.521 629.564 511.505C629.564 512.489 629.922 513.44 630.57 514.18L664.25 552.43C664.552 552.774 664.952 553.017 665.397 553.128C665.841 553.239 666.308 553.211 666.736 553.049C667.164 552.887 667.533 552.599 667.793 552.222C668.053 551.845 668.191 551.398 668.19 550.94V537.85H687.53C692.088 537.779 696.549 536.527 700.479 534.217C704.408 531.907 707.672 528.618 709.95 524.67L736.29 479.05C740.97 470.96 741.25 461.26 736.85 453.75Z" fill="white"/><path id="Vector_39" d="M227 516V570H254L275.41 548.59C277.183 546.817 278.589 544.713 279.548 542.396C280.508 540.08 281.001 537.597 281 535.09C281 530.027 278.989 525.171 275.409 521.591C271.829 518.011 266.973 516 261.91 516H227Z" fill="#C7C7C9"/><path id="Vector_40" d="M283.25 349.53C282.064 348.936 280.692 348.837 279.433 349.255C278.175 349.673 277.134 350.574 276.54 351.76L200.81 503.21C196.999 510.847 195.011 519.264 195 527.8V538H38C36.6739 538 35.4021 538.527 34.4645 539.464C33.5268 540.402 33 541.674 33 543C33 544.326 33.5268 545.598 34.4645 546.535C35.4021 547.473 36.6739 548 38 548H195V678C195 679.326 195.527 680.598 196.464 681.535C197.402 682.473 198.674 683 200 683C201.326 683 202.598 682.473 203.536 681.535C204.473 680.598 205 679.326 205 678V527.8C205.006 520.816 206.632 513.929 209.75 507.68L285.47 356.24C286.065 355.055 286.165 353.684 285.749 352.425C285.332 351.167 284.434 350.126 283.25 349.53V349.53Z" fill="#808080"/><path id="Vector_41" d="M118.15 727.21C119.476 727.21 120.747 726.683 121.685 725.746C122.623 724.808 123.15 723.536 123.15 722.21V701.29C123.15 699.964 122.623 698.692 121.685 697.755C120.747 696.817 119.476 696.29 118.15 696.29H65.8496C64.5235 696.29 63.2518 696.817 62.3141 697.755C61.3764 698.692 60.8496 699.964 60.8496 701.29V722.21C60.8496 723.536 61.3764 724.808 62.3141 725.746C63.2518 726.683 64.5235 727.21 65.8496 727.21H118.15ZM70.8496 706.29H113.15V717.21H70.8496V706.29Z" fill="black"/><path id="Vector_42" d="M1064 740.5H933.93C933.062 716.088 923.025 692.9 905.82 675.56C896.486 666.123 885.359 658.646 873.094 653.57C860.829 648.494 847.674 645.92 834.4 646H362C336.485 646.03 311.954 655.848 293.464 673.43C274.974 691.013 263.934 715.019 262.62 740.5H188C185.348 740.5 182.804 739.446 180.929 737.571C179.054 735.695 178 733.152 178 730.5V693C178 690.348 179.054 687.804 180.929 685.929C182.804 684.053 185.348 683 188 683H197.93L223.46 708.54C223.925 709.004 224.477 709.372 225.085 709.622C225.692 709.873 226.343 710.001 227 710H247.41C248.443 709.999 249.45 709.679 250.294 709.083C251.137 708.486 251.775 707.643 252.12 706.67C260.179 683.966 275.067 664.312 294.74 650.405C314.413 636.499 337.908 629.022 362 629H834.5C888.98 629 936.87 667.59 948.36 720.76C948.592 721.886 949.205 722.897 950.096 723.624C950.987 724.351 952.1 724.748 953.25 724.75H1064C1065.33 724.75 1066.6 724.223 1067.54 723.285C1068.47 722.348 1069 721.076 1069 719.75C1069 718.424 1068.47 717.152 1067.54 716.214C1066.6 715.277 1065.33 714.75 1064 714.75H957.25C950.376 687.408 934.569 663.145 912.338 645.808C890.106 628.472 862.722 619.054 834.53 619.05H394V379.05C394 371.093 390.839 363.463 385.213 357.837C379.587 352.211 371.956 349.05 364 349.05H254.42C253.094 349.05 251.822 349.577 250.884 350.514C249.947 351.452 249.42 352.724 249.42 354.05C249.42 355.376 249.947 356.648 250.884 357.585C251.822 358.523 253.094 359.05 254.42 359.05H364C369.304 359.05 374.391 361.157 378.142 364.908C381.893 368.658 384 373.745 384 379.05V619.05H362C336.449 619.077 311.502 626.826 290.432 641.281C269.362 655.736 253.153 676.221 243.93 700.05H229.07L203.54 674.52C203.308 674.289 203.053 674.081 202.78 673.9C202.7 673.84 202.61 673.81 202.53 673.76C202.335 673.637 202.131 673.53 201.92 673.44C201.81 673.44 201.69 673.37 201.58 673.33C201.388 673.256 201.191 673.196 200.99 673.15C200.661 673.081 200.326 673.047 199.99 673.05H162.59L166.84 656.05H199.99C201.316 656.05 202.588 655.523 203.526 654.585C204.463 653.648 204.99 652.376 204.99 651.05C204.99 649.724 204.463 648.452 203.526 647.514C202.588 646.577 201.316 646.05 199.99 646.05H169.35L180.35 602.05H200C201.326 602.05 202.598 601.523 203.536 600.585C204.473 599.648 205 598.376 205 597.05C205 595.724 204.473 594.452 203.536 593.514C202.598 592.577 201.326 592.05 200 592.05H176.45C175.335 592.05 174.251 592.423 173.373 593.11C172.494 593.797 171.87 594.758 171.6 595.84L152.25 673H75.65L56.35 595.75C56.0801 594.668 55.4561 593.707 54.5773 593.02C53.6985 592.333 52.6153 591.96 51.5 591.96H38C36.6739 591.96 35.4021 592.487 34.4645 593.424C33.5268 594.362 33 595.634 33 596.96C33 598.286 33.5268 599.558 34.4645 600.495C35.4021 601.433 36.6739 601.96 38 601.96H47.6L58.6 645.96H38C36.6739 645.96 35.4021 646.487 34.4645 647.424C33.5268 648.362 33 649.634 33 650.96C33 652.286 33.5268 653.558 34.4645 654.495C35.4021 655.433 36.6739 655.96 38 655.96H61.1L65.35 672.96H38C36.6739 672.96 35.4021 673.487 34.4645 674.424C33.5268 675.362 33 676.634 33 677.96C33 679.286 33.5268 680.558 34.4645 681.495C35.4021 682.433 36.6739 682.96 38 682.96H170.71C168.939 685.995 168.004 689.446 168 692.96V730.46C168.004 733.974 168.939 737.425 170.71 740.46H26C24.6739 740.46 23.4021 740.987 22.4645 741.924C21.5268 742.862 21 744.134 21 745.46C21 746.786 21.5268 748.058 22.4645 748.995C23.4021 749.933 24.6739 750.46 26 750.46H267.5C268.826 750.46 270.098 749.933 271.036 748.995C271.973 748.058 272.5 746.786 272.5 745.46C272.526 721.731 281.964 698.982 298.743 682.203C315.522 665.424 338.271 655.986 362 655.96H834.4C846.349 655.881 858.193 658.193 869.236 662.76C880.278 667.326 890.296 674.055 898.7 682.55C906.895 690.81 913.355 700.625 917.7 711.419C922.044 722.212 924.187 733.766 924 745.4C923.992 746.061 924.116 746.718 924.363 747.332C924.611 747.945 924.978 748.504 925.443 748.974C925.908 749.445 926.462 749.819 927.073 750.074C927.683 750.329 928.338 750.46 929 750.46H1064C1065.33 750.46 1066.6 749.933 1067.54 748.995C1068.47 748.058 1069 746.786 1069 745.46C1069 744.134 1068.47 742.862 1067.54 741.924C1066.6 740.987 1065.33 740.46 1064 740.46V740.5Z" fill="black"/><path id="Vector_43" d="M80.3997 652.21C80.6696 653.292 81.2936 654.253 82.1724 654.94C83.0512 655.626 84.1344 656 85.2497 656H141C142.115 656 143.198 655.626 144.077 654.94C144.956 654.253 145.58 653.292 145.85 652.21L172.85 544.21C173.026 543.567 173.072 542.896 172.985 542.235C172.898 541.575 172.68 540.938 172.343 540.363C172.007 539.788 171.559 539.286 171.026 538.886C170.492 538.487 169.885 538.198 169.238 538.036C168.592 537.875 167.919 537.845 167.261 537.947C166.602 538.049 165.971 538.282 165.404 538.631C164.837 538.981 164.345 539.441 163.958 539.983C163.571 540.526 163.296 541.14 163.15 541.79L157.35 565H68.8997L63.0997 541.75C62.9534 541.1 62.6787 540.486 62.2916 539.943C61.9045 539.401 61.4129 538.941 60.8457 538.592C60.2785 538.242 59.6471 538.009 58.9886 537.907C58.3301 537.805 57.6579 537.835 57.0114 537.996C56.3648 538.158 55.757 538.447 55.2238 538.846C54.6905 539.246 54.2424 539.748 53.9059 540.323C53.5695 540.898 53.3514 541.535 53.2644 542.195C53.1775 542.856 53.2235 543.527 53.3997 544.17L80.3997 652.21ZM143.59 620.03H82.6597L78.1497 602.03H148.1L143.59 620.03ZM137.1 646.03H89.1497L85.1497 630.03H141.08L137.1 646.03ZM154.85 575.03L150.6 592.03H75.6497L71.3997 575.03H154.85Z" fill="black"/><path id="Vector_44" d="M81.1803 521H160.64C165.286 521.015 169.843 519.728 173.795 517.286C177.747 514.843 180.936 511.342 183 507.18L237.74 397.75C238.884 395.463 239.425 392.921 239.31 390.366C239.195 387.811 238.429 385.328 237.084 383.153C235.739 380.978 233.861 379.182 231.627 377.937C229.393 376.693 226.878 376.039 224.32 376.04H144.86C140.214 376.025 135.657 377.312 131.705 379.755C127.753 382.197 124.564 385.698 122.5 389.86L67.7603 499.29C66.6163 501.577 66.076 504.119 66.1909 506.674C66.3058 509.229 67.072 511.712 68.4167 513.887C69.7614 516.063 71.6399 517.858 73.8738 519.103C76.1077 520.348 78.6229 521.001 81.1803 521ZM76.7103 503.75L131.44 394.28C132.68 391.783 134.594 389.683 136.966 388.218C139.338 386.753 142.072 385.981 144.86 385.99H224.32C225.173 385.99 226.011 386.208 226.756 386.624C227.501 387.039 228.127 387.638 228.575 388.363C229.022 389.089 229.277 389.917 229.315 390.769C229.353 391.621 229.172 392.468 228.79 393.23L174.06 502.75C172.82 505.247 170.906 507.347 168.534 508.812C166.163 510.277 163.428 511.049 160.64 511.04H81.1803C80.3207 511.045 79.4746 510.827 78.7235 510.409C77.9724 509.991 77.3418 509.387 76.8925 508.654C76.4432 507.921 76.1904 507.085 76.1585 506.226C76.1265 505.367 76.3166 504.514 76.7103 503.75V503.75Z" fill="black"/><path id="Vector_45" d="M335 565C333.674 565 332.402 565.527 331.464 566.464C330.527 567.402 330 568.674 330 570V597C330 598.326 330.527 599.598 331.464 600.536C332.402 601.473 333.674 602 335 602H362C363.326 602 364.598 601.473 365.536 600.536C366.473 599.598 367 598.326 367 597V570C367 568.674 366.473 567.402 365.536 566.464C364.598 565.527 363.326 565 362 565H335ZM357 592H340V575H357V592Z" fill="black"/><path id="Vector_46" d="M367 396C367 390.696 364.893 385.609 361.142 381.858C357.392 378.107 352.305 376 347 376H303.77C300.053 375.989 296.407 377.019 293.245 378.973C290.083 380.928 287.532 383.73 285.88 387.06L225.69 507.43C224.509 509.81 223.6 512.316 222.98 514.9V515.02C222.35 517.66 222.031 520.366 222.03 523.08V555C222.03 560.304 224.137 565.392 227.888 569.142C231.639 572.893 236.726 575 242.03 575H271.95C278.86 575.008 285.616 572.961 291.36 569.12L358.12 524.61C360.86 522.784 363.107 520.31 364.662 517.407C366.216 514.505 367.03 511.263 367.03 507.97L367 396ZM232 555V523.08C232 522.39 232 521.69 232.1 521H261.91C264.702 520.991 267.433 521.812 269.757 523.358C272.081 524.904 273.894 527.105 274.965 529.682C276.036 532.26 276.318 535.097 275.774 537.835C275.23 540.573 273.885 543.088 271.91 545.06L251.97 565H242.04C240.724 565.005 239.419 564.751 238.201 564.25C236.983 563.75 235.876 563.014 234.943 562.085C234.011 561.156 233.27 560.052 232.765 558.836C232.26 557.62 232 556.317 232 555V555ZM357 508C357.001 509.646 356.595 511.267 355.818 512.718C355.042 514.169 353.919 515.407 352.55 516.32L285.78 560.83C281.679 563.574 276.855 565.035 271.92 565.03H266.07L278.94 552.16C282.309 548.793 284.605 544.504 285.536 539.833C286.468 535.162 285.994 530.32 284.175 525.918C282.356 521.516 279.273 517.753 275.315 515.103C271.357 512.453 266.703 511.036 261.94 511.03H235.09L294.83 391.56C295.655 389.895 296.929 388.494 298.509 387.517C300.09 386.539 301.912 386.024 303.77 386.03H347C349.652 386.03 352.196 387.084 354.071 388.959C355.947 390.834 357 393.378 357 396.03V508Z" fill="black"/><path id="Vector_47" d="M237 592C233.022 592 229.206 593.581 226.393 596.394C223.58 599.207 222 603.022 222 607V641C222 644.978 223.58 648.794 226.393 651.607C229.206 654.42 233.022 656 237 656H247.44C248.176 655.999 248.903 655.835 249.568 655.521C250.234 655.206 250.822 654.748 251.29 654.18C260.574 642.928 271.512 633.15 283.73 625.18C284.427 624.726 285 624.105 285.396 623.373C285.793 622.641 286 621.822 286 620.99V606.99C286 603.012 284.42 599.197 281.607 596.384C278.794 593.571 274.978 591.99 271 591.99L237 592ZM276 607V618.34C264.504 626.126 254.113 635.43 245.11 646H237C235.674 646 234.402 645.473 233.464 644.536C232.527 643.598 232 642.326 232 641V607C232 605.674 232.527 604.402 233.464 603.465C234.402 602.527 235.674 602 237 602H271C272.326 602 273.598 602.527 274.536 603.465C275.473 604.402 276 605.674 276 607Z" fill="black"/><path id="Vector_48" d="M443 673C441.674 673 440.402 673.527 439.464 674.464C438.527 675.402 438 676.674 438 678C438 679.326 438.527 680.598 439.464 681.536C440.402 682.473 441.674 683 443 683C454.93 683 465 699.26 465 718.5C465 737.74 454.93 754 443 754C441.674 754 440.402 754.527 439.464 755.464C438.527 756.402 438 757.674 438 759C438 760.326 438.527 761.598 439.464 762.536C440.402 763.473 441.674 764 443 764C460.94 764 475 744 475 718.5C475 693 460.94 673 443 673Z" fill="black"/><path id="Vector_49" d="M497 673C495.674 673 494.402 673.527 493.464 674.464C492.527 675.402 492 676.674 492 678C492 679.326 492.527 680.598 493.464 681.536C494.402 682.473 495.674 683 497 683C508.93 683 519 699.26 519 718.5C519 737.74 508.93 754 497 754C495.674 754 494.402 754.527 493.464 755.464C492.527 756.402 492 757.674 492 759C492 760.326 492.527 761.598 493.464 762.536C494.402 763.473 495.674 764 497 764C514.94 764 529 744 529 718.5C529 693 514.94 673 497 673Z" fill="black"/><path id="Vector_50" d="M470 673C468.674 673 467.402 673.527 466.464 674.464C465.527 675.402 465 676.674 465 678C465 679.326 465.527 680.598 466.464 681.536C467.402 682.473 468.674 683 470 683C481.93 683 492 699.26 492 718.5C492 737.74 481.93 754 470 754C468.674 754 467.402 754.527 466.464 755.464C465.527 756.402 465 757.674 465 759C465 760.326 465.527 761.598 466.464 762.536C467.402 763.473 468.674 764 470 764C487.94 764 502 744 502 718.5C502 693 487.94 673 470 673Z" fill="black"/></g></g></svg>