<svg viewBox="364.5 351 350.9999999999997 377.9999999999997" fill="none" xmlns="http://www.w3.org/2000/svg" xmlns:xlink="http://www.w3.org/1999/xlink" overflow="visible" width="350.9999999999997px" height="377.9999999999997px"><g id="Master/Objects/Bonfire"><g id="Group 31"><path id="Vector" d="M433.9 541.43L445.41 529.92C448.943 526.391 451.746 522.2 453.659 517.587C455.571 512.974 456.555 508.029 456.555 503.035C456.555 498.041 455.571 493.096 453.659 488.483C451.746 483.87 448.943 479.679 445.41 476.15C459.645 476.15 473.296 481.804 483.361 491.87C493.426 501.935 499.08 515.586 499.08 529.82V540.28C499.08 543.547 500.378 546.681 502.689 548.992C504.999 551.302 508.133 552.6 511.4 552.6C514.668 552.6 517.801 551.302 520.112 548.992C522.422 546.681 523.72 543.547 523.72 540.28V441.06C523.729 436.065 522.749 431.117 520.837 426.502C518.925 421.887 516.119 417.696 512.58 414.17C526.902 414.17 540.637 419.859 550.764 429.986C560.891 440.113 566.58 453.848 566.58 468.17V539.07C566.58 542.65 568.003 546.084 570.534 548.616C573.066 551.148 576.5 552.57 580.08 552.57C583.661 552.57 587.095 551.148 589.626 548.616C592.158 546.084 593.58 542.65 593.58 539.07V529.79C593.58 515.556 599.235 501.905 609.3 491.84C619.365 481.774 633.016 476.12 647.25 476.12C643.717 479.649 640.914 483.84 639.002 488.453C637.09 493.066 636.105 498.011 636.105 503.005C636.105 507.999 637.09 512.944 639.002 517.557C640.914 522.17 643.717 526.361 647.25 529.89L658.76 541.4C666.311 548.952 671.453 558.573 673.536 569.047C675.619 579.521 674.549 590.378 670.463 600.244C666.376 610.11 659.456 618.543 650.577 624.477C641.698 630.411 631.259 633.578 620.58 633.58H472.08C461.401 633.578 450.962 630.411 442.084 624.477C433.205 618.543 426.285 610.11 422.198 600.244C418.111 590.378 417.042 579.521 419.125 569.047C421.208 558.573 426.35 548.952 433.9 541.4V541.43Z" fill="#FEC005"/><path id="Vector_2" d="M581.83 497.24C587.212 495.452 591.895 492.016 595.214 487.417C598.533 482.818 600.319 477.291 600.32 471.62V458.13C600.313 453.584 602.112 449.221 605.32 446C599.938 447.787 595.255 451.224 591.936 455.823C588.617 460.422 586.831 465.949 586.83 471.62V485.11C586.837 489.656 585.039 494.019 581.83 497.24V497.24Z" fill="#FEC005"/><path id="Vector_3" d="M512.58 497.24C507.198 495.452 502.515 492.016 499.196 487.417C495.877 482.818 494.091 477.291 494.09 471.62V458.13C494.097 453.584 492.298 449.221 489.09 446C494.472 447.787 499.155 451.224 502.474 455.823C505.792 460.422 507.579 465.949 507.58 471.62V485.11C507.573 489.656 509.371 494.019 512.58 497.24V497.24Z" fill="#FEC005"/><path id="Vector_4" d="M472.83 633.62H406.05C395.426 633.62 385.236 637.841 377.724 645.353C370.211 652.866 365.99 663.056 365.99 673.68C365.99 684.305 370.211 694.494 377.724 702.007C385.236 709.52 395.426 713.74 406.05 713.74H472.83C483.455 713.74 493.644 709.52 501.157 702.007C508.67 694.494 512.89 684.305 512.89 673.68C512.89 663.056 508.67 652.866 501.157 645.353C493.644 637.841 483.455 633.62 472.83 633.62V633.62Z" fill="#945035"/><path id="Vector_5" d="M673.111 633.62H606.341C595.717 633.62 585.527 637.841 578.015 645.353C570.502 652.866 566.281 663.056 566.281 673.68C566.281 684.305 570.502 694.494 578.015 702.007C585.527 709.52 595.717 713.74 606.341 713.74H673.111C683.736 713.74 693.925 709.52 701.438 702.007C708.951 694.494 713.171 684.305 713.171 673.68C713.171 663.056 708.951 652.866 701.438 645.353C693.925 637.841 683.736 633.62 673.111 633.62V633.62Z" fill="#945035"/><path id="Vector_6" d="M539.58 714.62C561.948 714.62 580.08 696.488 580.08 674.12C580.08 651.753 561.948 633.62 539.58 633.62C517.213 633.62 499.08 651.753 499.08 674.12C499.08 696.488 517.213 714.62 539.58 714.62Z" fill="#945035"/><path id="Vector_7" d="M671.041 677.66C671.506 678.124 672.058 678.492 672.665 678.742C673.273 678.993 673.924 679.121 674.581 679.12C675.236 679.123 675.886 678.994 676.491 678.74C677.405 678.362 678.187 677.721 678.737 676.899C679.287 676.077 679.581 675.11 679.581 674.12V633.62C679.581 632.294 679.054 631.022 678.116 630.085C677.179 629.147 675.907 628.62 674.581 628.62C668.152 628.62 661.796 629.985 655.934 632.626C650.073 635.267 644.839 639.124 640.581 643.94C630.731 636.84 611.251 637.87 601.311 640.62C592.461 643.07 574.071 645.17 573.881 645.19C572.941 645.438 572.063 645.878 571.302 646.484C570.542 647.089 569.916 647.847 569.465 648.707C569.013 649.568 568.746 650.514 568.68 651.483C568.613 652.453 568.75 653.426 569.081 654.34C572.748 659.815 574.82 666.203 575.065 672.788C575.311 679.373 573.72 685.897 570.471 691.63C569.779 692.162 569.22 692.848 568.839 693.634C568.458 694.419 568.264 695.282 568.274 696.155C568.283 697.028 568.496 697.887 568.895 698.663C569.293 699.44 569.867 700.113 570.571 700.63C571.392 701.174 572.356 701.462 573.341 701.46H573.841C585.746 704.85 598.329 705.081 610.351 702.13C626.351 698.13 640.351 705.22 642.751 706.56C651.244 714.909 662.682 719.579 674.591 719.56C675.917 719.56 677.189 719.033 678.126 718.096C679.064 717.158 679.591 715.886 679.591 714.56C679.591 713.234 679.064 711.962 678.126 711.025C677.189 710.087 675.917 709.56 674.591 709.56C667.996 709.562 661.532 707.726 655.923 704.258C650.314 700.791 645.781 695.83 642.834 689.931C639.887 684.031 638.642 677.428 639.239 670.861C639.835 664.293 642.249 658.022 646.211 652.75L671.041 677.66ZM653.271 645.74C658.048 642.144 663.66 639.818 669.581 638.98V662.06L653.271 645.74ZM603.971 650.26C614.121 647.45 629.701 648.06 634.831 652.06C632.992 655.358 631.571 658.871 630.601 662.52C624.601 660.52 614.601 658.13 604.191 659.41C597.601 660.22 592.031 661.41 587.111 662.52L583.771 663.24C583.024 660.213 581.969 657.271 580.621 654.46C587.051 653.58 597.521 652.06 603.971 650.26V650.26ZM607.971 692.45C599.146 694.594 589.957 694.761 581.061 692.94C583.747 687.03 585.135 680.612 585.131 674.12C585.131 673.8 585.131 673.48 585.131 673.12C586.511 672.83 587.891 672.53 589.311 672.21C594.241 671.13 599.311 670.02 605.471 669.21C615.031 668.03 624.571 670.82 629.191 672.48C629.191 673 629.191 673.48 629.191 674.03C629.189 680.317 630.497 686.536 633.031 692.29C624.766 690.358 616.16 690.413 607.921 692.45H607.971Z" fill="black"/><path id="Vector_8" d="M593.581 688.92C597.922 688.92 601.441 686.488 601.441 683.49C601.441 680.491 597.922 678.06 593.581 678.06C589.24 678.06 585.721 680.491 585.721 683.49C585.721 686.488 589.24 688.92 593.581 688.92Z" fill="black"/><path id="Vector_9" d="M510.83 694.14C510.412 693.09 509.651 692.212 508.67 691.65C505.459 685.978 503.868 679.532 504.073 673.018C504.277 666.503 506.269 660.169 509.83 654.71C510.181 653.787 510.34 652.803 510.299 651.817C510.257 650.831 510.016 649.863 509.59 648.973C509.163 648.083 508.561 647.289 507.818 646.639C507.076 645.988 506.209 645.495 505.27 645.19C505.08 645.19 486.69 643.07 477.84 640.62C467.9 637.87 448.42 636.84 438.57 643.94C434.312 639.124 429.078 635.267 423.217 632.626C417.355 629.985 410.999 628.62 404.57 628.62C403.244 628.62 401.972 629.147 401.035 630.085C400.097 631.022 399.57 632.294 399.57 633.62V674.12C399.57 675.11 399.864 676.077 400.414 676.899C400.964 677.721 401.746 678.362 402.66 678.74C403.265 678.994 403.915 679.123 404.57 679.12C405.227 679.121 405.878 678.993 406.486 678.742C407.093 678.492 407.645 678.124 408.11 677.66L432.95 652.81C436.912 658.082 439.326 664.353 439.922 670.921C440.519 677.488 439.274 684.091 436.327 689.991C433.38 695.89 428.847 700.851 423.238 704.318C417.629 707.786 411.165 709.622 404.57 709.62C403.244 709.62 401.972 710.147 401.035 711.085C400.097 712.022 399.57 713.294 399.57 714.62C399.57 715.946 400.097 717.218 401.035 718.156C401.972 719.093 403.244 719.62 404.57 719.62C416.479 719.639 427.917 714.969 436.41 706.62C438.86 705.28 452.85 698.21 468.81 702.19C480.799 705.126 493.343 704.905 505.22 701.55C505.43 701.565 505.641 701.565 505.85 701.55C506.705 701.479 507.534 701.218 508.274 700.784C509.015 700.35 509.648 699.756 510.128 699.045C510.608 698.333 510.922 697.523 511.047 696.674C511.172 695.826 511.105 694.96 510.85 694.14H510.83ZM475.19 650.26C481.64 652.05 492.12 653.58 498.56 654.43C497.209 657.241 496.15 660.183 495.4 663.21L492.06 662.49C487.15 661.41 481.58 660.19 474.98 659.38C464.57 658.09 454.55 660.53 448.57 662.49C447.597 658.852 446.177 655.348 444.34 652.06C449.46 648.06 465.04 647.45 475.19 650.26ZM409.58 638.98C415.501 639.818 421.113 642.144 425.89 645.74L409.58 662.06V638.98ZM471.24 692.45C463.029 690.46 454.463 690.436 446.24 692.38C448.774 686.626 450.082 680.407 450.08 674.12C450.08 673.6 450.08 673.12 450.08 672.56C454.68 670.9 464.18 668.12 473.8 669.3C479.93 670.06 485.03 671.17 489.96 672.3C491.38 672.62 492.77 672.92 494.14 673.21C494.14 673.53 494.14 673.85 494.14 674.21C494.136 680.702 495.524 687.12 498.21 693.03C489.287 694.825 480.078 694.627 471.24 692.45V692.45Z" fill="black"/><path id="Vector_10" d="M485.581 688.92C489.922 688.92 493.441 686.488 493.441 683.49C493.441 680.491 489.922 678.06 485.581 678.06C481.24 678.06 477.721 680.491 477.721 683.49C477.721 686.488 481.24 688.92 485.581 688.92Z" fill="black"/><path id="Vector_11" d="M635.291 537.9L623.831 526.39C617.451 520.02 614.251 513.39 614.321 506.63C614.391 499.87 617.701 493.23 624.151 486.78C624.647 486.324 625.046 485.772 625.324 485.158C625.602 484.544 625.752 483.88 625.766 483.206C625.781 482.532 625.659 481.862 625.408 481.236C625.157 480.611 624.782 480.043 624.306 479.566C623.829 479.089 623.262 478.713 622.636 478.461C622.011 478.209 621.342 478.086 620.668 478.1C619.994 478.113 619.329 478.263 618.715 478.539C618.1 478.816 617.548 479.214 617.091 479.71C608.831 487.96 604.411 497.23 604.321 506.53C604.231 515.83 608.521 525.23 616.751 533.47L628.271 544.98C635.121 551.833 639.786 560.564 641.674 570.067C643.563 579.571 642.592 589.422 638.884 598.374C635.175 607.326 628.896 614.977 620.839 620.361C612.783 625.745 603.311 628.619 593.621 628.62C592.295 628.62 591.023 629.147 590.086 630.084C589.148 631.022 588.621 632.294 588.621 633.62C588.621 634.946 589.148 636.218 590.086 637.155C591.023 638.093 592.295 638.62 593.621 638.62C605.29 638.618 616.696 635.157 626.397 628.673C636.098 622.189 643.659 612.974 648.123 602.194C652.588 591.413 653.755 579.551 651.478 568.107C649.201 556.663 643.582 546.151 635.331 537.9H635.291Z" fill="#EE1926"/><path id="Vector_12" d="M598.58 562.91V539.11C598.58 537.784 598.053 536.512 597.116 535.574C596.178 534.637 594.906 534.11 593.58 534.11C592.254 534.11 590.982 534.637 590.045 535.574C589.107 536.512 588.58 537.784 588.58 539.11V552.62C588.58 558.455 586.262 564.05 582.136 568.176C578.011 572.302 572.415 574.62 566.58 574.62C565.254 574.62 563.982 575.147 563.045 576.084C562.107 577.022 561.58 578.294 561.58 579.62C561.58 580.946 562.107 582.218 563.045 583.155C563.982 584.093 565.254 584.62 566.58 584.62C573.474 584.627 580.184 582.395 585.7 578.26C582.901 585.467 578.195 591.778 572.087 596.518C565.978 601.258 558.697 604.248 551.02 605.17V447.65C551.009 437.458 546.956 427.687 539.75 420.48C532.543 413.274 522.772 409.221 512.58 409.21C511.254 409.21 509.982 409.737 509.045 410.674C508.107 411.612 507.58 412.884 507.58 414.21C507.58 415.536 508.107 416.808 509.045 417.746C509.982 418.683 511.254 419.21 512.58 419.21C520.12 419.218 527.35 422.217 532.681 427.549C538.013 432.88 541.012 440.11 541.02 447.65V620.12C541.019 622.55 541.496 624.956 542.426 627.201C543.355 629.446 544.718 631.486 546.436 633.204C548.154 634.923 550.194 636.285 552.439 637.214C554.684 638.144 557.09 638.621 559.52 638.62C560.846 638.62 562.118 638.093 563.056 637.155C563.993 636.218 564.52 634.946 564.52 633.62C564.52 632.294 563.993 631.022 563.056 630.084C562.118 629.147 560.846 628.62 559.52 628.62C557.266 628.62 555.104 627.724 553.51 626.13C551.916 624.536 551.02 622.374 551.02 620.12V615.23C564.029 613.971 576.103 607.917 584.895 598.246C593.686 588.575 598.564 575.979 598.58 562.91Z" fill="#EE1926"/><path id="Vector_13" d="M512.581 628.62C498.981 628.604 485.941 623.194 476.324 613.577C466.707 603.96 461.297 590.921 461.281 577.32V498.62C461.281 497.294 460.754 496.022 459.817 495.085C458.879 494.147 457.607 493.62 456.281 493.62C454.955 493.62 453.683 494.147 452.746 495.085C451.808 496.022 451.281 497.294 451.281 498.62V577.32C451.3 593.572 457.764 609.153 469.256 620.645C480.748 632.137 496.329 638.602 512.581 638.62C513.907 638.62 515.179 638.093 516.117 637.156C517.054 636.218 517.581 634.946 517.581 633.62C517.581 632.294 517.054 631.022 516.117 630.085C515.179 629.147 513.907 628.62 512.581 628.62Z" fill="#EE1926"/><path id="Vector_14" d="M472.72 508.46V547.31C472.731 557.201 476.664 566.683 483.656 573.677C490.649 580.672 500.13 584.607 510.02 584.62H512.58C513.906 584.62 515.178 584.094 516.116 583.156C517.053 582.218 517.58 580.946 517.58 579.62C517.58 578.294 517.053 577.023 516.116 576.085C515.178 575.147 513.906 574.62 512.58 574.62H510.02C502.781 574.61 495.842 571.729 490.724 566.609C485.607 561.49 482.728 554.549 482.72 547.31V508.46C482.707 498.569 478.772 489.087 471.778 482.093C464.784 475.099 455.301 471.164 445.41 471.15C444.084 471.15 442.812 471.677 441.875 472.615C440.937 473.553 440.41 474.824 440.41 476.15C440.41 477.476 440.937 478.748 441.875 479.686C442.812 480.624 444.084 481.15 445.41 481.15C452.651 481.158 459.593 484.038 464.712 489.158C469.832 494.278 472.712 501.22 472.72 508.46V508.46Z" fill="#EE1926"/><path id="Vector_15" d="M523.72 535.28C522.394 535.28 521.123 535.807 520.185 536.745C519.247 537.682 518.72 538.954 518.72 540.28V584.73C518.715 590.229 516.528 595.501 512.64 599.39C508.752 603.278 503.479 605.465 497.98 605.47C496.654 605.47 495.383 605.997 494.445 606.935C493.507 607.872 492.98 609.144 492.98 610.47C492.98 611.796 493.507 613.068 494.445 614.006C495.383 614.944 496.654 615.47 497.98 615.47C506.131 615.462 513.945 612.221 519.708 606.458C525.471 600.695 528.713 592.881 528.72 584.73V540.28C528.72 538.954 528.194 537.682 527.256 536.745C526.318 535.807 525.047 535.28 523.72 535.28V535.28Z" fill="#EE1926"/><path id="Vector_16" d="M581.831 502.24C582.491 502.24 583.144 502.109 583.754 501.855C584.363 501.601 584.916 501.229 585.381 500.76C587.432 498.704 589.058 496.263 590.165 493.577C591.272 490.892 591.838 488.014 591.831 485.11V471.62C591.823 466.998 593.275 462.492 595.979 458.745C598.684 454.997 602.502 452.199 606.891 450.75C608.151 450.333 609.193 449.434 609.79 448.248C610.386 447.063 610.487 445.69 610.071 444.43C609.654 443.17 608.755 442.127 607.569 441.531C606.384 440.935 605.011 440.833 603.751 441.25C597.37 443.368 591.818 447.441 587.883 452.893C583.949 458.344 581.831 464.897 581.831 471.62V485.11C581.835 486.707 581.525 488.29 580.917 489.767C580.31 491.244 579.417 492.588 578.291 493.72C577.596 494.421 577.124 495.312 576.935 496.28C576.745 497.249 576.847 498.252 577.226 499.163C577.606 500.074 578.247 500.852 579.068 501.4C579.889 501.947 580.854 502.24 581.841 502.24H581.831Z" fill="#EE1926"/><path id="Vector_17" d="M546.521 395.37C550.909 396.819 554.728 399.617 557.432 403.365C560.136 407.112 561.588 411.618 561.581 416.24C561.581 417.566 562.107 418.838 563.045 419.775C563.983 420.713 565.255 421.24 566.581 421.24C567.907 421.24 569.178 420.713 570.116 419.775C571.054 418.838 571.581 417.566 571.581 416.24C571.58 409.517 569.463 402.964 565.528 397.513C561.593 392.061 556.042 387.988 549.661 385.87C548.401 385.454 547.027 385.555 545.842 386.151C544.657 386.747 543.757 387.79 543.341 389.05C542.924 390.31 543.025 391.683 543.622 392.869C544.218 394.054 545.261 394.954 546.521 395.37Z" fill="#EE1926"/><path id="Vector_18" d="M489.09 458.13V471.62C489.09 478.344 491.207 484.896 495.142 490.347C499.077 495.799 504.629 499.873 511.009 501.99C511.633 502.197 512.292 502.278 512.947 502.23C513.602 502.181 514.241 502.005 514.828 501.709C515.415 501.414 515.938 501.006 516.367 500.509C516.796 500.011 517.123 499.434 517.329 498.81C517.536 498.187 517.617 497.528 517.569 496.873C517.521 496.218 517.344 495.579 517.048 494.992C516.753 494.405 516.345 493.882 515.848 493.453C515.35 493.024 514.773 492.697 514.15 492.49C509.761 491.041 505.942 488.243 503.238 484.496C500.534 480.748 499.082 476.242 499.09 471.62V458.13C499.098 455.226 498.533 452.349 497.428 449.664C496.323 446.978 494.699 444.537 492.65 442.48C491.699 441.654 490.471 441.217 489.212 441.256C487.953 441.296 486.756 441.809 485.859 442.693C484.962 443.578 484.432 444.768 484.374 446.026C484.317 447.285 484.737 448.518 485.549 449.48C486.681 450.617 487.576 451.967 488.184 453.452C488.791 454.936 489.099 456.526 489.09 458.13V458.13Z" fill="#EE1926"/><path id="Vector_19" d="M512.58 395.619C513.906 395.619 515.178 395.093 516.116 394.155C517.053 393.217 517.58 391.946 517.58 390.619V377.13C517.576 375.532 517.886 373.95 518.494 372.472C519.101 370.995 519.994 369.652 521.12 368.519C521.933 367.557 522.353 366.324 522.295 365.065C522.238 363.807 521.708 362.617 520.811 361.732C519.914 360.848 518.716 360.335 517.457 360.295C516.198 360.256 514.971 360.693 514.02 361.519C511.97 363.576 510.346 366.018 509.241 368.703C508.136 371.388 507.572 374.266 507.58 377.169V390.66C507.591 391.979 508.122 393.24 509.059 394.169C509.995 395.098 511.261 395.62 512.58 395.619V395.619Z" fill="#EE1926"/></g></g></svg>